<?xml version="1.0" encoding="utf-8"?>
<!-- Generator: Adobe Illustrator 27.8.1, SVG Export Plug-In . SVG Version: 6.00 Build 0)  -->
<svg version="1.1" id="Capa_1" xmlns="http://www.w3.org/2000/svg" xmlns:xlink="http://www.w3.org/1999/xlink" x="0px" y="0px"
	 viewBox="0 0 566.93 566.93" style="enable-background:new 0 0 566.93 566.93;" xml:space="preserve">
<style type="text/css">
	.st0{fill:#1E1E1C;}
	.st1{fill:url(#SVGID_1_);}
	.st2{fill:url(#SVGID_00000006685630085588399900000007709553823656529082_);}
	.st3{fill:url(#SVGID_00000134241584628021261860000007349904738049685148_);}
	.st4{fill:url(#SVGID_00000025406586203293402700000000108284610600618890_);}
	.st5{fill:url(#SVGID_00000065755976551602093460000006098883519926831792_);}
	.st6{fill:url(#SVGID_00000150801208594336348250000007616676737669109914_);}
</style>
<g>
	<path class="st0" d="M144.4,306.96c1.86,0.59,2.71,2.3,2.71,4.33c0,2.71-1.57,4.77-4.51,4.77h-6.45v-17.54h5.96
		c2.94,0,4.51,2.06,4.51,4.51c0,1.75-0.85,3.2-2.22,3.87V306.96z M137.3,299.55v6.97h4.67c2.19,0,3.48-1.26,3.48-3.48
		c0-2.01-1.29-3.48-3.48-3.48H137.3z M142.46,315.03c2.19,0,3.48-1.47,3.48-3.74c0-2.48-1.29-3.74-3.48-3.74h-5.16v7.48H142.46z"/>
	<path class="st0" d="M150.98,316.07v-12.9h1.03v2.19h0.05c0.85-1.68,2.63-2.45,4.33-2.45v1.16h-0.26c-2.32,0-4.13,1.86-4.13,4v8
		H150.98z"/>
	<path class="st0" d="M159.24,303.94v-0.64c1.55-0.26,3.04-0.39,4.26-0.39c2.71,0,4.26,1.03,4.26,4.13v9.03h-1.03v-1.68h-0.05
		c-1.24,1.55-2.53,1.93-4.23,1.93c-2.43,0-4.1-1.29-4.1-3.61c0-2.58,1.68-3.74,4.44-3.74h3.95v-1.88c0-1.99-0.64-3.15-3.23-3.15
		H159.24z M166.72,309.93h-3.9c-2.3,0-3.46,0.98-3.46,2.79c0,1.81,1.42,2.66,3.35,2.66c1.81,0,4-1.24,4-3.69V309.93z"/>
	<path class="st0" d="M171.88,316.07v-12.9h1.03v1.68h0.05c1.11-1.42,2.63-1.93,4.33-1.93c2.58,0,4.13,1.55,4.13,3.87v9.29h-1.03
		v-9.29c0-1.81-1.42-2.92-3.35-2.92c-1.91,0-4.13,1.37-4.13,3.69v8.51H171.88z"/>
	<path class="st0" d="M194.33,298.01h1.03v18.06h-1.03v-1.68h-0.05c-1.11,1.42-2.27,1.93-3.95,1.93c-3.74,0-5.03-2.79-5.03-6.71
		c0-3.92,1.65-6.71,5.55-6.71c1.42,0,1.93,0.05,3.48,0.26V298.01z M194.33,303.94h-3.48c-3.25,0-4.46,2.58-4.46,5.68
		c0,3.09,0.83,5.75,4.21,5.75c1.91,0,3.74-1.37,3.74-3.69V303.94z"/>
	<path class="st0" d="M200.52,298.01v2.84h-1.03v-2.84H200.52z M200.52,303.17v12.9h-1.03v-12.9H200.52z"/>
	<path class="st0" d="M204.65,316.07v-12.9h1.03v1.68h0.05c1.11-1.42,2.63-1.93,4.33-1.93c2.58,0,4.13,1.55,4.13,3.87v9.29h-1.03
		v-9.29c0-1.81-1.42-2.92-3.35-2.92c-1.91,0-4.13,1.37-4.13,3.69v8.51H204.65z"/>
	<path class="st0" d="M227.09,314.39h-0.05c-1.11,1.42-2.27,1.93-3.95,1.93c-3.74,0-5.03-2.79-5.03-6.71c0-3.92,1.65-6.45,5.55-6.45
		h4.51v11.61c0,3.92-1.39,6.71-5.29,6.71c-1.21,0-2.19-0.13-3.74-0.39v-0.64h3.79c3.25,0,4.21-2.58,4.21-5.68V314.39z
		 M227.09,304.12h-3.48c-3.25,0-4.46,2.4-4.46,5.5c0,3.09,0.83,5.75,4.21,5.75c1.91,0,3.74-1.37,3.74-3.69V304.12z"/>
	<path class="st0" d="M250.98,307.04c-0.49,3.09-1.42,5.18-2.53,6.58l2.3,2.45h-1.55l-1.52-1.6c-1.65,1.52-3.53,1.86-4.93,1.86
		c-3.66,0-5.34-1.88-5.34-4.62c0-2.17,1.47-3.71,3.28-4.72c-1.34-1.63-2.32-2.86-2.32-4.51c0-2.79,2.24-4.21,5.42-4.21
		c1.21,0,1.68,0.13,3.23,0.39v0.77h-3.23c-2.94,0-4.26,1.11-4.26,3.09c0,1.42,1.01,2.63,3.77,5.6l4.44,4.75
		c1.01-1.24,1.86-3.1,2.24-5.83H250.98z M246.96,313.69l-5.6-5.96c-1.57,0.85-2.84,2.04-2.84,3.95c0,1.34,0.62,3.69,4.23,3.69
		C243.66,315.37,245.39,315.08,246.96,313.69z"/>
	<path class="st0" d="M266.34,298.27c1.21,0,2.71,0.13,4.26,0.39v0.77h-4.26c-4.52,0-5.42,4.51-5.42,7.87c0,3.35,0.9,7.87,5.42,7.87
		h4.26v0.77c-1.55,0.26-3.04,0.39-4.26,0.39c-5.29,0-6.58-4.64-6.58-9.03C259.76,302.91,261.05,298.27,266.34,298.27z"/>
	<path class="st0" d="M273.95,309.62c0-3.92,1.39-6.71,5.29-6.71c3.9,0,5.29,2.79,5.29,6.71c0,3.92-1.39,6.71-5.29,6.71
		C275.34,316.32,273.95,313.54,273.95,309.62z M275.03,309.62c0,3.09,0.95,5.75,4.21,5.75s4.21-2.66,4.21-5.75
		c0-3.1-0.95-5.75-4.21-5.75S275.03,306.52,275.03,309.62z"/>
	<path class="st0" d="M288.4,316.07v-12.9h1.03v1.68h0.05c1.11-1.42,2.63-1.93,4.33-1.93c1.88,0,3.25,0.83,3.82,2.19h0.1
		c1.34-1.7,2.89-2.19,4.59-2.19c2.58,0,4.13,1.55,4.13,3.87v9.29h-1.03v-9.29c0-1.81-1.42-2.92-3.35-2.92
		c-1.86,0-4.02,1.32-4.13,3.54v8.67h-1.03v-9.29c0-1.81-1.42-2.92-3.35-2.92c-1.91,0-4.13,1.37-4.13,3.69v8.51H288.4z"/>
	<path class="st0" d="M320.14,303.17v12.9h-1.03v-1.68h-0.05c-1.11,1.42-2.63,1.93-4.33,1.93c-2.58,0-4.13-1.55-4.13-3.87v-9.29
		h1.03v9.29c0,1.8,1.42,2.91,3.35,2.91c1.91,0,4.13-1.37,4.13-3.69v-8.51H320.14z"/>
	<path class="st0" d="M324.27,316.07v-12.9h1.03v1.68h0.05c1.11-1.42,2.63-1.93,4.33-1.93c2.58,0,4.13,1.55,4.13,3.87v9.29h-1.03
		v-9.29c0-1.81-1.42-2.92-3.35-2.92c-1.91,0-4.13,1.37-4.13,3.69v8.51H324.27z"/>
	<path class="st0" d="M338.97,298.01v2.84h-1.03v-2.84H338.97z M338.97,303.17v12.9h-1.03v-12.9H338.97z"/>
	<path class="st0" d="M348.13,302.91c1.21,0,2.19,0.13,3.74,0.39v0.64h-3.74c-3.25,0-4.21,2.58-4.21,5.68
		c0,3.09,0.95,5.68,4.21,5.68h3.74v0.64c-1.55,0.26-2.53,0.39-3.74,0.39c-3.9,0-5.29-2.79-5.29-6.71
		C342.84,305.7,344.24,302.91,348.13,302.91z"/>
	<path class="st0" d="M355.23,303.94v-0.64c1.55-0.26,3.04-0.39,4.26-0.39c2.71,0,4.26,1.03,4.26,4.13v9.03h-1.03v-1.68h-0.05
		c-1.24,1.55-2.53,1.93-4.23,1.93c-2.42,0-4.1-1.29-4.1-3.61c0-2.58,1.68-3.74,4.44-3.74h3.95v-1.88c0-1.99-0.64-3.15-3.23-3.15
		H355.23z M362.71,309.93h-3.9c-2.3,0-3.46,0.98-3.46,2.79c0,1.81,1.42,2.66,3.35,2.66c1.81,0,4-1.24,4-3.69V309.93z"/>
	<path class="st0" d="M372.9,302.91c1.21,0,2.19,0.13,3.74,0.39v0.64h-3.74c-3.25,0-4.21,2.58-4.21,5.68c0,3.09,0.95,5.68,4.21,5.68
		h3.74v0.64c-1.55,0.26-2.53,0.39-3.74,0.39c-3.9,0-5.29-2.79-5.29-6.71C367.61,305.7,369.01,302.91,372.9,302.91z"/>
	<path class="st0" d="M380.64,298.01v2.84h-1.03v-2.84H380.64z M380.64,303.17v12.9h-1.03v-12.9H380.64z"/>
	<path class="st0" d="M384.25,309.62c0-3.92,1.39-6.71,5.29-6.71c3.9,0,5.29,2.79,5.29,6.71c0,3.92-1.39,6.71-5.29,6.71
		C385.65,316.32,384.25,313.54,384.25,309.62z M385.34,309.62c0,3.09,0.95,5.75,4.2,5.75c3.25,0,4.21-2.66,4.21-5.75
		c0-3.1-0.95-5.75-4.21-5.75C386.29,303.86,385.34,306.52,385.34,309.62z M392.72,298.01l-2.32,3.61h-1.16l1.81-3.61H392.72z"/>
	<path class="st0" d="M398.96,316.07v-12.9h1.03v1.68h0.05c1.11-1.42,2.63-1.93,4.33-1.93c2.58,0,4.13,1.55,4.13,3.87v9.29h-1.03
		v-9.29c0-1.81-1.42-2.92-3.35-2.92c-1.91,0-4.13,1.37-4.13,3.69v8.51H398.96z"/>
</g>
<g>
	<path class="st0" d="M153.83,265.99c-0.43-2.79-2.52-4.27-5.59-4.27c-4.66,0-6.44,4.07-6.44,8.23c0,4.15,1.79,8.22,6.44,8.22
		c3.41,0,5.32-1.9,5.59-5.12h7.22c-0.43,7.18-5.63,11.33-12.65,11.33c-8.42,0-13.81-6.4-13.81-14.43c0-8.03,5.39-14.43,13.81-14.43
		c6.01,0,12.45,3.8,12.65,10.48H153.83z"/>
	<path class="st0" d="M164.34,269.87c0.12-2.64,1.32-4.35,3.14-5.39c1.82-1.05,4.07-1.4,6.4-1.4c4.77,0,9.39,1.05,9.39,6.75v8.81
		c0,1.71,0,3.57,0.78,5.16h-6.63c-0.27-0.62-0.27-1.24-0.39-1.9c-1.71,1.82-4.19,2.48-6.63,2.48c-3.88,0-6.87-1.94-6.87-6.09
		c0-6.52,7.14-6.05,11.72-6.98c1.13-0.27,1.75-0.62,1.75-1.86c0-1.51-1.82-2.1-3.18-2.1c-1.9,0-2.99,0.85-3.3,2.52H164.34z
		 M172.87,280.31c3.14,0,4.19-1.75,4.04-5.94c-0.93,0.58-2.64,0.66-4.07,1.09c-1.51,0.35-2.72,0.97-2.72,2.56
		C170.12,279.69,171.36,280.31,172.87,280.31z"/>
	<path class="st0" d="M199.76,267.93h-4.07v9.16c0,1.59,0.93,1.94,2.37,1.94c0.58,0,1.12-0.08,1.71-0.08v4.85
		c-1.2,0.04-2.41,0.19-3.61,0.19c-5.63,0-7.06-1.67-7.06-7.1v-8.96h-3.34v-4.27h3.34v-6.09h6.6v6.09h4.07V267.93z"/>
	<path class="st0" d="M202.44,269.87c0.12-2.64,1.32-4.35,3.14-5.39c1.82-1.05,4.07-1.4,6.4-1.4c4.77,0,9.39,1.05,9.39,6.75v8.81
		c0,1.71,0,3.57,0.78,5.16h-6.63c-0.27-0.62-0.27-1.24-0.39-1.9c-1.71,1.82-4.19,2.48-6.63,2.48c-3.88,0-6.87-1.94-6.87-6.09
		c0-6.52,7.14-6.05,11.72-6.98c1.13-0.27,1.75-0.62,1.75-1.86c0-1.51-1.82-2.1-3.18-2.1c-1.9,0-2.99,0.85-3.3,2.52H202.44z
		 M210.97,280.31c3.14,0,4.19-1.75,4.04-5.94c-0.93,0.58-2.64,0.66-4.07,1.09c-1.51,0.35-2.72,0.97-2.72,2.56
		C208.22,279.69,209.46,280.31,210.97,280.31z"/>
	<path class="st0" d="M225.95,256.1h6.6v27.7h-6.6V256.1z"/>
	<path class="st0" d="M236.92,269.87c0.12-2.64,1.32-4.35,3.14-5.39c1.82-1.05,4.07-1.4,6.4-1.4c4.77,0,9.39,1.05,9.39,6.75v8.81
		c0,1.71,0,3.57,0.78,5.16H250c-0.27-0.62-0.27-1.24-0.39-1.9c-1.71,1.82-4.19,2.48-6.63,2.48c-3.88,0-6.87-1.94-6.87-6.09
		c0-6.52,7.14-6.05,11.72-6.98c1.13-0.27,1.75-0.62,1.75-1.86c0-1.51-1.82-2.1-3.18-2.1c-1.9,0-2.99,0.85-3.3,2.52H236.92z
		 M245.46,280.31c3.14,0,4.19-1.75,4.04-5.94c-0.93,0.58-2.64,0.66-4.07,1.09c-1.51,0.35-2.72,0.97-2.72,2.56
		C242.71,279.69,243.95,280.31,245.46,280.31z M254.66,255.67l-6.09,5.78h-4.66l3.76-5.78H254.66z"/>
	<path class="st0" d="M260.2,263.66h6.4v2.76h0.08c1.24-2.06,3.92-3.34,6.32-3.34c6.71,0,7.26,4.89,7.26,7.8v12.92h-6.6v-9.74v-2.02
		c0-1.94-0.66-3.53-3.3-3.53c-2.48,0-3.57,2.13-3.57,4.31v10.98h-6.6V263.66z"/>
	<g>
		<g>
			<path class="st0" d="M415.92,250.59c-3.69,0-6.68,2.99-6.68,6.68c0,3.69,2.99,6.68,6.68,6.68s6.68-2.99,6.68-6.68
				C422.6,253.58,419.61,250.59,415.92,250.59z M415.92,262.3c-2.78,0-5.03-2.25-5.03-5.03c0-2.78,2.25-5.03,5.03-5.03
				s5.03,2.25,5.03,5.03C420.94,260.05,418.69,262.3,415.92,262.3z"/>
		</g>
		<g>
			<g>
				<path class="st0" d="M417.4,256.28c-0.11-0.7-0.63-1.06-1.39-1.06c-1.16,0-1.6,1.01-1.6,2.05c0,1.03,0.44,2.05,1.6,2.05
					c0.85,0,1.32-0.47,1.39-1.27h1.8c-0.11,1.79-1.4,2.82-3.15,2.82c-2.1,0-3.44-1.59-3.44-3.59c0-2,1.34-3.59,3.44-3.59
					c1.5,0,3.1,0.95,3.15,2.61H417.4z"/>
			</g>
		</g>
	</g>
</g>
<g>
	<g>
		<g>
			<linearGradient id="SVGID_1_" gradientUnits="userSpaceOnUse" x1="294.2498" y1="270.9861" x2="406.8719" y2="270.9861">
				<stop  offset="0" style="stop-color:#2D4E9D"/>
				<stop  offset="1" style="stop-color:#000000"/>
			</linearGradient>
			<path class="st1" d="M293.35,275.53c0.15,3.26,2.13,4.31,5.24,4.31c2.17,0,4.42-0.78,4.42-2.83c0-2.48-3.96-2.91-7.95-4.04
				c-3.92-1.12-8.11-2.87-8.11-7.99c0-6.05,6.09-8.42,11.29-8.42c5.47,0,11.1,2.72,11.1,8.92h-7.22c0.12-2.48-2.29-3.34-4.46-3.34
				c-1.55,0-3.49,0.54-3.49,2.37c0,2.17,4,2.52,8.03,3.65c4,1.12,8.03,2.99,8.03,7.99c0,7.02-5.97,9.27-12.07,9.27
				c-6.32,0-12.03-2.79-12.03-9.89H293.35z"/>
			
				<linearGradient id="SVGID_00000009578722893341352890000007925147259887731900_" gradientUnits="userSpaceOnUse" x1="294.2498" y1="271.8203" x2="406.8719" y2="271.8203">
				<stop  offset="0" style="stop-color:#2D4E9D"/>
				<stop  offset="1" style="stop-color:#000000"/>
			</linearGradient>
			<path style="fill:url(#SVGID_00000009578722893341352890000007925147259887731900_);" d="M325.47,268.97h-4.07v9.16
				c0,1.59,0.93,1.94,2.37,1.94c0.58,0,1.12-0.08,1.71-0.08v4.85c-1.2,0.04-2.41,0.19-3.61,0.19c-5.63,0-7.06-1.67-7.06-7.1v-8.96
				h-3.34v-4.27h3.34v-6.09h6.6v6.09h4.07V268.97z"/>
			
				<linearGradient id="SVGID_00000132770785103721255190000009395455395130507170_" gradientUnits="userSpaceOnUse" x1="294.2498" y1="275.0598" x2="406.8719" y2="275.0598">
				<stop  offset="0" style="stop-color:#2D4E9D"/>
				<stop  offset="1" style="stop-color:#000000"/>
			</linearGradient>
			<path style="fill:url(#SVGID_00000132770785103721255190000009395455395130507170_);" d="M348.44,284.84h-6.4v-2.76h-0.08
				c-1.24,2.06-3.8,3.34-6.13,3.34c-5.78,0-7.45-3.34-7.45-8.61V264.7h6.6v11.68c0,2.68,1.13,3.61,3.26,3.61
				c1.4,0,3.61-0.93,3.61-4.5V264.7h6.6V284.84z"/>
			
				<linearGradient id="SVGID_00000129902689943198507950000003831761946671615363_" gradientUnits="userSpaceOnUse" x1="294.2498" y1="271.2769" x2="406.8719" y2="271.2769">
				<stop  offset="0" style="stop-color:#2D4E9D"/>
				<stop  offset="1" style="stop-color:#000000"/>
			</linearGradient>
			<path style="fill:url(#SVGID_00000129902689943198507950000003831761946671615363_);" d="M372.81,284.84h-6.29v-2.33h-0.08
				c-1.32,1.94-3.18,2.91-5.55,2.91c-6.33,0-9-5.39-9-11.1c0-5.24,2.79-10.2,8.5-10.2c2.44,0,4.38,0.93,5.74,2.76h0.08v-9.74h6.6
				V284.84z M358.49,274.56c0,2.76,1.05,5.82,4.04,5.82c3.22,0,3.92-3.06,3.92-5.63c0-2.91-1.05-5.59-3.92-5.59
				C359.53,269.16,358.49,272,358.49,274.56z"/>
			
				<linearGradient id="SVGID_00000017500579776523740650000000943258949836799393_" gradientUnits="userSpaceOnUse" x1="294.2498" y1="270.9861" x2="406.8719" y2="270.9861">
				<stop  offset="0" style="stop-color:#2D4E9D"/>
				<stop  offset="1" style="stop-color:#000000"/>
			</linearGradient>
			<path style="fill:url(#SVGID_00000017500579776523740650000000943258949836799393_);" d="M384.13,262.18h-6.6v-5.04h6.6V262.18z
				 M377.54,264.7h6.6v20.14h-6.6V264.7z"/>
			
				<linearGradient id="SVGID_00000026130051532832335290000010001615384066533034_" gradientUnits="userSpaceOnUse" x1="294.2498" y1="274.769" x2="406.8719" y2="274.769">
				<stop  offset="0" style="stop-color:#2D4E9D"/>
				<stop  offset="1" style="stop-color:#000000"/>
			</linearGradient>
			<path style="fill:url(#SVGID_00000026130051532832335290000010001615384066533034_);" d="M398.41,264.12
				c6.25,0,10.63,4.62,10.63,10.67c0,6.05-4.38,10.63-10.63,10.63c-6.25,0-10.59-4.58-10.59-10.63
				C387.82,268.74,392.16,264.12,398.41,264.12z M398.41,280.38c3.1,0,4.03-2.99,4.03-5.59c0-2.56-0.93-5.63-4.03-5.63
				c-3.07,0-4,3.07-4,5.63C394.41,277.39,395.34,280.38,398.41,280.38z"/>
		</g>
	</g>
</g>
</svg>
