<?xml version="1.0" encoding="utf-8"?>
<!-- Generator: Adobe Illustrator 27.8.1, SVG Export Plug-In . SVG Version: 6.00 Build 0)  -->
<svg version="1.1" id="Capa_1" xmlns="http://www.w3.org/2000/svg" xmlns:xlink="http://www.w3.org/1999/xlink" x="0px" y="0px"
	 viewBox="0 0 566.93 566.93" style="enable-background:new 0 0 566.93 566.93;" xml:space="preserve">
<style type="text/css">
	.st0{fill:url(#SVGID_1_);}
	.st1{fill:#1E1E1C;}
	.st2{fill:url(#SVGID_00000118389829372040611230000012675671358893728400_);}
	.st3{fill:#FFFFFF;}
	.st4{fill:url(#SVGID_00000054237314570199328570000000393679418782480527_);}
	.st5{fill:url(#SVGID_00000175312176065688311890000007189844829563141013_);}
	.st6{fill:url(#SVGID_00000098942188205203817800000003539090177460404385_);}
	.st7{fill:url(#SVGID_00000121268005946280438350000009425445177094114179_);}
	.st8{fill:url(#SVGID_00000103975147838745854110000005982639017734196651_);}
	.st9{fill:url(#SVGID_00000082360785386276508680000006657490128718593957_);}
</style>
<linearGradient id="SVGID_1_" gradientUnits="userSpaceOnUse" x1="418.4518" y1="283.6034" x2="479.878" y2="283.6034">
	<stop  offset="0" style="stop-color:#2D4E9D"/>
	<stop  offset="1" style="stop-color:#000000"/>
</linearGradient>
<circle class="st0" cx="449.16" cy="283.6" r="30.71"/>
<g>
	<path class="st1" d="M330.51,280.87c-0.28-1.83-1.65-2.79-3.65-2.79c-3.04,0-4.21,2.66-4.21,5.38c0,2.71,1.17,5.38,4.21,5.38
		c2.23,0,3.48-1.24,3.65-3.35h4.72c-0.28,4.69-3.68,7.41-8.27,7.41c-5.5,0-9.03-4.19-9.03-9.44c0-5.25,3.53-9.44,9.03-9.44
		c3.93,0,8.14,2.49,8.27,6.85H330.51z"/>
	<g>
		
			<linearGradient id="SVGID_00000031898998044457369580000017470569618239355044_" gradientUnits="userSpaceOnUse" x1="337.1181" y1="283.9428" x2="352.871" y2="283.9428">
			<stop  offset="0" style="stop-color:#2D4E9D"/>
			<stop  offset="1" style="stop-color:#000000"/>
		</linearGradient>
		<path style="fill:url(#SVGID_00000031898998044457369580000017470569618239355044_);" d="M341.84,286.91
			c0.1,2.13,1.4,2.82,3.42,2.82c1.42,0,2.89-0.51,2.89-1.85c0-1.62-2.59-1.9-5.2-2.64c-2.56-0.74-5.3-1.88-5.3-5.23
			c0-3.96,3.98-5.5,7.38-5.5c3.58,0,7.26,1.78,7.26,5.83h-4.72c0.08-1.62-1.5-2.18-2.92-2.18c-1.01,0-2.28,0.35-2.28,1.55
			c0,1.42,2.61,1.65,5.25,2.38c2.61,0.74,5.25,1.95,5.25,5.23c0,4.59-3.91,6.06-7.89,6.06c-4.13,0-7.86-1.83-7.86-6.47H341.84z"/>
	</g>
	<g>
		<g>
			<path class="st1" d="M358.97,270.8c-2.41,0-4.37,1.96-4.37,4.37c0,2.41,1.96,4.37,4.37,4.37c2.41,0,4.37-1.96,4.37-4.37
				C363.34,272.75,361.38,270.8,358.97,270.8z M358.97,278.45c-1.81,0-3.29-1.47-3.29-3.29c0-1.81,1.47-3.29,3.29-3.29
				s3.29,1.47,3.29,3.29C362.26,276.98,360.78,278.45,358.97,278.45z"/>
		</g>
		<g>
			<g>
				<path class="st1" d="M359.94,274.52c-0.07-0.45-0.41-0.69-0.91-0.69c-0.76,0-1.05,0.66-1.05,1.34c0,0.68,0.29,1.34,1.05,1.34
					c0.56,0,0.87-0.31,0.91-0.83h1.17c-0.07,1.17-0.92,1.84-2.06,1.84c-1.37,0-2.25-1.04-2.25-2.35c0-1.31,0.88-2.35,2.25-2.35
					c0.98,0,2.03,0.62,2.06,1.71H359.94z"/>
			</g>
		</g>
	</g>
</g>
<g>
	<path class="st3" d="M438.68,280.87c-0.28-1.83-1.65-2.79-3.65-2.79c-3.04,0-4.21,2.66-4.21,5.38c0,2.71,1.17,5.38,4.21,5.38
		c2.23,0,3.48-1.24,3.65-3.35h4.72c-0.28,4.69-3.68,7.41-8.27,7.41c-5.5,0-9.03-4.19-9.03-9.44c0-5.25,3.53-9.44,9.03-9.44
		c3.93,0,8.14,2.49,8.27,6.85H438.68z"/>
	<g>
		<g>
			<path class="st3" d="M450.01,286.91c0.1,2.13,1.4,2.82,3.42,2.82c1.42,0,2.89-0.51,2.89-1.85c0-1.62-2.59-1.9-5.2-2.64
				c-2.56-0.74-5.3-1.88-5.3-5.23c0-3.96,3.98-5.5,7.38-5.5c3.58,0,7.26,1.78,7.26,5.83h-4.72c0.08-1.62-1.5-2.18-2.92-2.18
				c-1.01,0-2.28,0.35-2.28,1.55c0,1.42,2.61,1.65,5.25,2.38c2.61,0.74,5.25,1.95,5.25,5.23c0,4.59-3.91,6.06-7.89,6.06
				c-4.13,0-7.86-1.83-7.86-6.47H450.01z"/>
		</g>
	</g>
	<g>
		<g>
			<path class="st3" d="M467.15,270.8c-2.41,0-4.37,1.96-4.37,4.37c0,2.41,1.96,4.37,4.37,4.37c2.41,0,4.37-1.96,4.37-4.37
				C471.52,272.75,469.56,270.8,467.15,270.8z M467.15,278.45c-1.81,0-3.29-1.47-3.29-3.29c0-1.81,1.47-3.29,3.29-3.29
				c1.81,0,3.29,1.47,3.29,3.29C470.43,276.98,468.96,278.45,467.15,278.45z"/>
		</g>
		<g>
			<g>
				<path class="st3" d="M468.12,274.52c-0.07-0.45-0.41-0.69-0.91-0.69c-0.76,0-1.05,0.66-1.05,1.34s0.29,1.34,1.05,1.34
					c0.56,0,0.87-0.31,0.91-0.83h1.17c-0.07,1.17-0.92,1.84-2.06,1.84c-1.37,0-2.25-1.04-2.25-2.35s0.88-2.35,2.25-2.35
					c0.98,0,2.03,0.62,2.06,1.71H468.12z"/>
			</g>
		</g>
	</g>
</g>
<g>
	<path class="st1" d="M92.8,306.01c1.08,0.34,1.58,1.34,1.58,2.52c0,1.58-0.92,2.78-2.63,2.78H88v-10.21h3.47
		c1.71,0,2.63,1.2,2.63,2.63c0,1.02-0.5,1.86-1.29,2.25V306.01z M88.67,301.71v4.05h2.72c1.28,0,2.03-0.74,2.03-2.03
		c0-1.17-0.75-2.03-2.03-2.03H88.67z M91.68,310.71c1.28,0,2.03-0.86,2.03-2.18c0-1.44-0.75-2.18-2.03-2.18h-3v4.35H91.68z"/>
	<path class="st1" d="M96.63,311.31v-7.5h0.6v1.28h0.03c0.5-0.98,1.53-1.43,2.52-1.43v0.67h-0.15c-1.35,0-2.4,1.08-2.4,2.33v4.65
		H96.63z"/>
	<path class="st1" d="M101.43,304.26v-0.38c0.9-0.15,1.77-0.22,2.48-0.22c1.58,0,2.48,0.6,2.48,2.4v5.25h-0.6v-0.98h-0.03
		c-0.72,0.9-1.47,1.13-2.46,1.13c-1.41,0-2.39-0.75-2.39-2.1c0-1.5,0.98-2.18,2.58-2.18h2.3v-1.1c0-1.16-0.38-1.83-1.88-1.83H101.43
		z M105.79,307.74h-2.27c-1.34,0-2.01,0.57-2.01,1.62c0,1.05,0.83,1.55,1.95,1.55c1.05,0,2.33-0.72,2.33-2.15V307.74z"/>
	<path class="st1" d="M108.79,311.31v-7.5h0.6v0.98h0.03c0.65-0.83,1.53-1.13,2.52-1.13c1.5,0,2.4,0.9,2.4,2.25v5.4h-0.6v-5.4
		c0-1.05-0.83-1.7-1.95-1.7c-1.11,0-2.4,0.8-2.4,2.15v4.95H108.79z"/>
	<path class="st1" d="M121.85,300.81h0.6v10.51h-0.6v-0.98h-0.03c-0.65,0.83-1.32,1.13-2.3,1.13c-2.18,0-2.93-1.62-2.93-3.9
		c0-2.28,0.96-3.9,3.23-3.9c0.83,0,1.13,0.03,2.03,0.15V300.81z M121.85,304.26h-2.03c-1.89,0-2.6,1.5-2.6,3.3
		c0,1.8,0.48,3.35,2.45,3.35c1.11,0,2.18-0.79,2.18-2.15V304.26z"/>
	<path class="st1" d="M125.45,300.81v1.65h-0.6v-1.65H125.45z M125.45,303.81v7.5h-0.6v-7.5H125.45z"/>
	<path class="st1" d="M127.85,311.31v-7.5h0.6v0.98h0.03c0.65-0.83,1.53-1.13,2.52-1.13c1.5,0,2.4,0.9,2.4,2.25v5.4h-0.6v-5.4
		c0-1.05-0.83-1.7-1.95-1.7c-1.11,0-2.4,0.8-2.4,2.15v4.95H127.85z"/>
	<path class="st1" d="M140.91,310.34h-0.03c-0.65,0.83-1.32,1.13-2.3,1.13c-2.18,0-2.93-1.62-2.93-3.9c0-2.28,0.96-3.75,3.23-3.75
		h2.63v6.75c0,2.28-0.81,3.9-3.08,3.9c-0.71,0-1.28-0.07-2.18-0.22v-0.38h2.21c1.89,0,2.45-1.5,2.45-3.3V310.34z M140.91,304.36
		h-2.03c-1.89,0-2.6,1.4-2.6,3.2c0,1.8,0.48,3.35,2.45,3.35c1.11,0,2.18-0.79,2.18-2.15V304.36z"/>
	<path class="st1" d="M154.81,306.06c-0.28,1.8-0.83,3.02-1.47,3.83l1.34,1.43h-0.9l-0.89-0.93c-0.96,0.89-2.06,1.08-2.87,1.08
		c-2.13,0-3.11-1.1-3.11-2.69c0-1.26,0.86-2.16,1.91-2.75c-0.78-0.95-1.35-1.67-1.35-2.63c0-1.62,1.31-2.45,3.15-2.45
		c0.71,0,0.98,0.07,1.88,0.22v0.45h-1.88c-1.71,0-2.48,0.65-2.48,1.8c0,0.83,0.58,1.53,2.19,3.26l2.58,2.76
		c0.59-0.72,1.08-1.8,1.31-3.39H154.81z M152.47,309.93l-3.26-3.47c-0.92,0.5-1.65,1.19-1.65,2.3c0,0.78,0.36,2.15,2.46,2.15
		C150.55,310.91,151.55,310.74,152.47,309.93z"/>
	<path class="st1" d="M163.74,300.96c0.71,0,1.58,0.07,2.48,0.22v0.45h-2.48c-2.63,0-3.15,2.63-3.15,4.58
		c0,1.95,0.53,4.58,3.15,4.58h2.48v0.45c-0.9,0.15-1.77,0.22-2.48,0.22c-3.08,0-3.83-2.7-3.83-5.25
		C159.91,303.66,160.67,300.96,163.74,300.96z"/>
	<path class="st1" d="M168.17,307.56c0-2.28,0.81-3.9,3.08-3.9s3.08,1.62,3.08,3.9c0,2.28-0.81,3.9-3.08,3.9
		S168.17,309.84,168.17,307.56z M168.8,307.56c0,1.8,0.56,3.35,2.45,3.35c1.89,0,2.45-1.55,2.45-3.35c0-1.8-0.56-3.35-2.45-3.35
		C169.36,304.21,168.8,305.76,168.8,307.56z"/>
	<path class="st1" d="M176.58,311.31v-7.5h0.6v0.98h0.03c0.65-0.83,1.53-1.13,2.52-1.13c1.1,0,1.89,0.48,2.22,1.27h0.06
		c0.78-0.99,1.68-1.27,2.67-1.27c1.5,0,2.4,0.9,2.4,2.25v5.4h-0.6v-5.4c0-1.05-0.83-1.7-1.95-1.7c-1.08,0-2.34,0.77-2.4,2.06v5.04
		h-0.6v-5.4c0-1.05-0.83-1.7-1.95-1.7c-1.11,0-2.4,0.8-2.4,2.15v4.95H176.58z"/>
	<path class="st1" d="M195.04,303.81v7.5h-0.6v-0.98h-0.03c-0.65,0.83-1.53,1.13-2.52,1.13c-1.5,0-2.4-0.9-2.4-2.25v-5.4h0.6v5.4
		c0,1.05,0.83,1.7,1.95,1.7c1.11,0,2.4-0.79,2.4-2.15v-4.95H195.04z"/>
	<path class="st1" d="M197.44,311.31v-7.5h0.6v0.98h0.03c0.65-0.83,1.53-1.13,2.52-1.13c1.5,0,2.4,0.9,2.4,2.25v5.4h-0.6v-5.4
		c0-1.05-0.83-1.7-1.95-1.7c-1.11,0-2.4,0.8-2.4,2.15v4.95H197.44z"/>
	<path class="st1" d="M206,300.81v1.65h-0.6v-1.65H206z M206,303.81v7.5h-0.6v-7.5H206z"/>
	<path class="st1" d="M211.33,303.66c0.71,0,1.28,0.07,2.18,0.22v0.38h-2.18c-1.89,0-2.45,1.5-2.45,3.3c0,1.8,0.56,3.3,2.45,3.3
		h2.18v0.38c-0.9,0.15-1.47,0.22-2.18,0.22c-2.27,0-3.08-1.62-3.08-3.9C208.25,305.28,209.06,303.66,211.33,303.66z"/>
	<path class="st1" d="M215.46,304.26v-0.38c0.9-0.15,1.77-0.22,2.48-0.22c1.58,0,2.48,0.6,2.48,2.4v5.25h-0.6v-0.98h-0.03
		c-0.72,0.9-1.47,1.13-2.46,1.13c-1.41,0-2.39-0.75-2.39-2.1c0-1.5,0.98-2.18,2.58-2.18h2.3v-1.1c0-1.16-0.38-1.83-1.88-1.83H215.46
		z M219.81,307.74h-2.27c-1.34,0-2.01,0.57-2.01,1.62c0,1.05,0.83,1.55,1.95,1.55c1.05,0,2.33-0.72,2.33-2.15V307.74z"/>
	<path class="st1" d="M225.74,303.66c0.71,0,1.28,0.07,2.18,0.22v0.38h-2.18c-1.89,0-2.45,1.5-2.45,3.3c0,1.8,0.56,3.3,2.45,3.3
		h2.18v0.38c-0.9,0.15-1.47,0.22-2.18,0.22c-2.27,0-3.08-1.62-3.08-3.9C222.66,305.28,223.47,303.66,225.74,303.66z"/>
	<path class="st1" d="M230.24,300.81v1.65h-0.6v-1.65H230.24z M230.24,303.81v7.5h-0.6v-7.5H230.24z"/>
	<path class="st1" d="M232.34,307.56c0-2.28,0.81-3.9,3.08-3.9c2.27,0,3.08,1.62,3.08,3.9c0,2.28-0.81,3.9-3.08,3.9
		C233.15,311.46,232.34,309.84,232.34,307.56z M232.97,307.56c0,1.8,0.56,3.35,2.45,3.35c1.89,0,2.45-1.55,2.45-3.35
		c0-1.8-0.56-3.35-2.45-3.35C233.53,304.21,232.97,305.76,232.97,307.56z M237.27,300.81l-1.35,2.1h-0.68l1.05-2.1H237.27z"/>
	<path class="st1" d="M240.9,311.31v-7.5h0.6v0.98h0.03c0.65-0.83,1.53-1.13,2.52-1.13c1.5,0,2.4,0.9,2.4,2.25v5.4h-0.6v-5.4
		c0-1.05-0.83-1.7-1.95-1.7c-1.11,0-2.4,0.8-2.4,2.15v4.95H240.9z"/>
</g>
<g>
	<path class="st1" d="M98.29,282.18c-0.25-1.63-1.47-2.48-3.25-2.48c-2.71,0-3.75,2.37-3.75,4.79c0,2.42,1.04,4.78,3.75,4.78
		c1.99,0,3.09-1.11,3.25-2.98h4.2c-0.25,4.18-3.27,6.59-7.36,6.59c-4.9,0-8.04-3.72-8.04-8.4c0-4.67,3.14-8.4,8.04-8.4
		c3.5,0,7.25,2.21,7.36,6.09H98.29z"/>
	<path class="st1" d="M104.4,284.44c0.07-1.53,0.77-2.53,1.83-3.14c1.06-0.61,2.37-0.81,3.72-0.81c2.78,0,5.46,0.61,5.46,3.93v5.12
		c0,0.99,0,2.08,0.45,3h-3.86c-0.16-0.36-0.16-0.72-0.23-1.11c-0.99,1.06-2.44,1.44-3.86,1.44c-2.26,0-4-1.13-4-3.54
		c0-3.79,4.15-3.52,6.82-4.06c0.65-0.16,1.02-0.36,1.02-1.08c0-0.88-1.06-1.22-1.85-1.22c-1.11,0-1.74,0.5-1.92,1.47H104.4z
		 M109.37,290.51c1.83,0,2.44-1.02,2.35-3.45c-0.54,0.34-1.53,0.38-2.37,0.63c-0.88,0.2-1.58,0.56-1.58,1.49
		C107.76,290.15,108.49,290.51,109.37,290.51z"/>
	<path class="st1" d="M125.01,283.31h-2.37v5.33c0,0.93,0.54,1.13,1.38,1.13c0.34,0,0.65-0.05,0.99-0.05v2.82
		c-0.7,0.02-1.4,0.11-2.1,0.11c-3.27,0-4.11-0.97-4.11-4.13v-5.21h-1.94v-2.48h1.94v-3.54h3.84v3.54h2.37V283.31z"/>
	<path class="st1" d="M126.56,284.44c0.07-1.53,0.77-2.53,1.83-3.14c1.06-0.61,2.37-0.81,3.72-0.81c2.78,0,5.46,0.61,5.46,3.93v5.12
		c0,0.99,0,2.08,0.45,3h-3.86c-0.16-0.36-0.16-0.72-0.23-1.11c-0.99,1.06-2.44,1.44-3.86,1.44c-2.26,0-4-1.13-4-3.54
		c0-3.79,4.15-3.52,6.82-4.06c0.65-0.16,1.02-0.36,1.02-1.08c0-0.88-1.06-1.22-1.85-1.22c-1.11,0-1.74,0.5-1.92,1.47H126.56z
		 M131.53,290.51c1.83,0,2.44-1.02,2.35-3.45c-0.54,0.34-1.53,0.38-2.37,0.63c-0.88,0.2-1.58,0.56-1.58,1.49
		C129.93,290.15,130.65,290.51,131.53,290.51z"/>
	<path class="st1" d="M140.24,276.43h3.84v16.12h-3.84V276.43z"/>
	<path class="st1" d="M146.63,284.44c0.07-1.53,0.77-2.53,1.83-3.14c1.06-0.61,2.37-0.81,3.72-0.81c2.78,0,5.46,0.61,5.46,3.93v5.12
		c0,0.99,0,2.08,0.45,3h-3.86c-0.16-0.36-0.16-0.72-0.23-1.11c-0.99,1.06-2.44,1.44-3.86,1.44c-2.26,0-4-1.13-4-3.54
		c0-3.79,4.15-3.52,6.82-4.06c0.65-0.16,1.02-0.36,1.02-1.08c0-0.88-1.06-1.22-1.85-1.22c-1.11,0-1.74,0.5-1.92,1.47H146.63z
		 M151.6,290.51c1.83,0,2.44-1.02,2.35-3.45c-0.54,0.34-1.53,0.38-2.37,0.63c-0.88,0.2-1.58,0.56-1.58,1.49
		C149.99,290.15,150.72,290.51,151.6,290.51z M156.95,276.18l-3.54,3.36h-2.71l2.19-3.36H156.95z"/>
	<path class="st1" d="M160.17,280.83h3.72v1.6h0.05c0.72-1.2,2.28-1.94,3.68-1.94c3.9,0,4.22,2.84,4.22,4.54v7.52H168v-5.67v-1.17
		c0-1.13-0.38-2.05-1.92-2.05c-1.44,0-2.08,1.24-2.08,2.51v6.39h-3.84V280.83z"/>
	<g>
		<g>
			<path class="st1" d="M250.76,273.22c-2.15,0-3.89,1.74-3.89,3.89c0,2.15,1.74,3.89,3.89,3.89s3.89-1.74,3.89-3.89
				C254.65,274.96,252.91,273.22,250.76,273.22z M250.76,280.03c-1.61,0-2.92-1.31-2.92-2.92c0-1.62,1.31-2.92,2.92-2.92
				s2.92,1.31,2.92,2.92C253.69,278.72,252.38,280.03,250.76,280.03z"/>
		</g>
		<g>
			<g>
				<path class="st1" d="M251.62,276.53c-0.06-0.4-0.37-0.62-0.81-0.62c-0.67,0-0.93,0.59-0.93,1.19s0.26,1.19,0.93,1.19
					c0.49,0,0.77-0.28,0.81-0.74h1.05c-0.06,1.04-0.81,1.64-1.83,1.64c-1.22,0-2-0.93-2-2.09s0.78-2.09,2-2.09
					c0.87,0,1.8,0.55,1.83,1.52H251.62z"/>
			</g>
		</g>
	</g>
</g>
<g>
	<g>
		<g>
			
				<linearGradient id="SVGID_00000018919952566842520330000003054325948843858337_" gradientUnits="userSpaceOnUse" x1="179.9803" y1="285.0867" x2="245.5008" y2="285.0867">
				<stop  offset="0" style="stop-color:#2D4E9D"/>
				<stop  offset="1" style="stop-color:#000000"/>
			</linearGradient>
			<path style="fill:url(#SVGID_00000018919952566842520330000003054325948843858337_);" d="M179.46,287.73
				c0.09,1.9,1.24,2.51,3.05,2.51c1.26,0,2.57-0.45,2.57-1.65c0-1.44-2.3-1.69-4.63-2.35c-2.28-0.65-4.72-1.67-4.72-4.65
				c0-3.52,3.54-4.9,6.57-4.9c3.18,0,6.46,1.58,6.46,5.19h-4.2c0.07-1.44-1.33-1.94-2.6-1.94c-0.9,0-2.03,0.32-2.03,1.38
				c0,1.26,2.32,1.47,4.67,2.12c2.33,0.65,4.67,1.74,4.67,4.65c0,4.09-3.48,5.39-7.02,5.39c-3.68,0-7-1.62-7-5.76H179.46z"/>
			
				<linearGradient id="SVGID_00000013173314907539982390000006283386173453363869_" gradientUnits="userSpaceOnUse" x1="179.9803" y1="285.572" x2="245.5008" y2="285.572">
				<stop  offset="0" style="stop-color:#2D4E9D"/>
				<stop  offset="1" style="stop-color:#000000"/>
			</linearGradient>
			<path style="fill:url(#SVGID_00000013173314907539982390000006283386173453363869_);" d="M198.15,283.91h-2.37v5.33
				c0,0.93,0.54,1.13,1.38,1.13c0.34,0,0.65-0.05,0.99-0.05v2.82c-0.7,0.02-1.4,0.11-2.1,0.11c-3.27,0-4.11-0.97-4.11-4.13v-5.21
				H190v-2.48h1.94v-3.54h3.84v3.54h2.37V283.91z"/>
			
				<linearGradient id="SVGID_00000003789036795221436800000017943159604860526509_" gradientUnits="userSpaceOnUse" x1="179.9803" y1="287.4567" x2="245.5008" y2="287.4567">
				<stop  offset="0" style="stop-color:#2D4E9D"/>
				<stop  offset="1" style="stop-color:#000000"/>
			</linearGradient>
			<path style="fill:url(#SVGID_00000003789036795221436800000017943159604860526509_);" d="M211.51,293.15h-3.72v-1.6h-0.05
				c-0.72,1.2-2.21,1.94-3.57,1.94c-3.36,0-4.33-1.94-4.33-5.01v-7.04h3.84v6.79c0,1.56,0.65,2.1,1.9,2.1c0.81,0,2.1-0.54,2.1-2.62
				v-6.28h3.84V293.15z"/>
			
				<linearGradient id="SVGID_00000053515579797638024920000006466939548906514599_" gradientUnits="userSpaceOnUse" x1="179.9803" y1="285.2559" x2="245.5008" y2="285.2559">
				<stop  offset="0" style="stop-color:#2D4E9D"/>
				<stop  offset="1" style="stop-color:#000000"/>
			</linearGradient>
			<path style="fill:url(#SVGID_00000053515579797638024920000006466939548906514599_);" d="M225.68,293.15h-3.66v-1.35h-0.05
				c-0.77,1.13-1.85,1.69-3.23,1.69c-3.68,0-5.24-3.14-5.24-6.46c0-3.05,1.63-5.94,4.94-5.94c1.42,0,2.55,0.54,3.34,1.6h0.05v-5.67
				h3.84V293.15z M217.35,287.16c0,1.6,0.61,3.39,2.35,3.39c1.87,0,2.28-1.78,2.28-3.27c0-1.69-0.61-3.25-2.28-3.25
				C217.96,284.03,217.35,285.67,217.35,287.16z"/>
			
				<linearGradient id="SVGID_00000021118030976268430090000017757823388871681982_" gradientUnits="userSpaceOnUse" x1="179.9803" y1="285.0867" x2="245.5008" y2="285.0867">
				<stop  offset="0" style="stop-color:#2D4E9D"/>
				<stop  offset="1" style="stop-color:#000000"/>
			</linearGradient>
			<path style="fill:url(#SVGID_00000021118030976268430090000017757823388871681982_);" d="M232.27,279.96h-3.84v-2.93h3.84V279.96
				z M228.43,281.43h3.84v11.72h-3.84V281.43z"/>
			
				<linearGradient id="SVGID_00000170236129069814685960000011596140851992959908_" gradientUnits="userSpaceOnUse" x1="179.9803" y1="287.2875" x2="245.5008" y2="287.2875">
				<stop  offset="0" style="stop-color:#2D4E9D"/>
				<stop  offset="1" style="stop-color:#000000"/>
			</linearGradient>
			<path style="fill:url(#SVGID_00000170236129069814685960000011596140851992959908_);" d="M240.58,281.09
				c3.63,0,6.18,2.69,6.18,6.21c0,3.52-2.55,6.18-6.18,6.18c-3.63,0-6.16-2.66-6.16-6.18C234.41,283.78,236.94,281.09,240.58,281.09
				z M240.58,290.55c1.81,0,2.35-1.74,2.35-3.25c0-1.49-0.54-3.27-2.35-3.27c-1.78,0-2.33,1.78-2.33,3.27
				C238.25,288.81,238.79,290.55,240.58,290.55z"/>
		</g>
	</g>
</g>
</svg>
