<?xml version="1.0" encoding="utf-8"?>
<!-- Generator: Adobe Illustrator 27.8.1, SVG Export Plug-In . SVG Version: 6.00 Build 0)  -->
<svg version="1.1" id="Capa_1" xmlns="http://www.w3.org/2000/svg" xmlns:xlink="http://www.w3.org/1999/xlink" x="0px" y="0px"
	 viewBox="0 0 566.93 566.93" style="enable-background:new 0 0 566.93 566.93;" xml:space="preserve">
<style type="text/css">
	.st0{fill:#2D4B9B;}
	.st1{fill:#FFFFFF;}
</style>
<rect x="35.99" y="216.1" class="st0" width="494.98" height="135.15"/>
<circle class="st1" cx="446.12" cy="279.41" r="30.71"/>
<g>
	<path class="st1" d="M327.46,276.67c-0.28-1.83-1.65-2.79-3.65-2.79c-3.04,0-4.21,2.66-4.21,5.38c0,2.71,1.17,5.38,4.21,5.38
		c2.23,0,3.48-1.24,3.65-3.35h4.72c-0.28,4.69-3.68,7.41-8.27,7.41c-5.5,0-9.03-4.19-9.03-9.44c0-5.25,3.53-9.44,9.03-9.44
		c3.93,0,8.14,2.49,8.27,6.85H327.46z"/>
	<g>
		<path class="st1" d="M338.79,282.71c0.1,2.13,1.4,2.82,3.42,2.82c1.42,0,2.89-0.51,2.89-1.85c0-1.62-2.59-1.9-5.2-2.64
			c-2.56-0.74-5.3-1.88-5.3-5.23c0-3.96,3.98-5.5,7.38-5.5c3.58,0,7.26,1.78,7.26,5.83h-4.72c0.08-1.62-1.5-2.18-2.92-2.18
			c-1.01,0-2.28,0.35-2.28,1.55c0,1.42,2.61,1.65,5.25,2.38c2.61,0.74,5.25,1.95,5.25,5.23c0,4.59-3.91,6.06-7.89,6.06
			c-4.13,0-7.86-1.83-7.86-6.47H338.79z"/>
	</g>
	<g>
		<g>
			<path class="st1" d="M355.93,266.6c-2.41,0-4.37,1.96-4.37,4.37c0,2.41,1.96,4.37,4.37,4.37c2.41,0,4.37-1.96,4.37-4.37
				C360.29,268.56,358.34,266.6,355.93,266.6z M355.93,274.25c-1.81,0-3.29-1.47-3.29-3.29c0-1.81,1.47-3.29,3.29-3.29
				s3.29,1.47,3.29,3.29C359.21,272.78,357.74,274.25,355.93,274.25z"/>
		</g>
		<g>
			<g>
				<path class="st1" d="M356.9,270.32c-0.07-0.45-0.41-0.69-0.91-0.69c-0.76,0-1.05,0.66-1.05,1.34s0.29,1.34,1.05,1.34
					c0.56,0,0.87-0.31,0.91-0.83h1.17c-0.07,1.17-0.92,1.84-2.06,1.84c-1.37,0-2.25-1.04-2.25-2.35s0.88-2.35,2.25-2.35
					c0.98,0,2.03,0.62,2.06,1.71H356.9z"/>
			</g>
		</g>
	</g>
</g>
<g>
	<path class="st0" d="M435.64,276.67c-0.28-1.83-1.65-2.79-3.65-2.79c-3.04,0-4.21,2.66-4.21,5.38c0,2.71,1.17,5.38,4.21,5.38
		c2.23,0,3.48-1.24,3.65-3.35h4.72c-0.28,4.69-3.68,7.41-8.27,7.41c-5.5,0-9.03-4.19-9.03-9.44c0-5.25,3.53-9.44,9.03-9.44
		c3.93,0,8.14,2.49,8.27,6.85H435.64z"/>
	<g>
		<g>
			<path class="st0" d="M446.97,282.71c0.1,2.13,1.4,2.82,3.42,2.82c1.42,0,2.89-0.51,2.89-1.85c0-1.62-2.59-1.9-5.2-2.64
				c-2.56-0.74-5.3-1.88-5.3-5.23c0-3.96,3.98-5.5,7.38-5.5c3.58,0,7.26,1.78,7.26,5.83h-4.72c0.08-1.62-1.5-2.18-2.92-2.18
				c-1.01,0-2.28,0.35-2.28,1.55c0,1.42,2.61,1.65,5.25,2.38c2.61,0.74,5.25,1.95,5.25,5.23c0,4.59-3.91,6.06-7.89,6.06
				c-4.13,0-7.86-1.83-7.86-6.47H446.97z"/>
		</g>
	</g>
	<g>
		<g>
			<path class="st0" d="M464.1,266.6c-2.41,0-4.37,1.96-4.37,4.37c0,2.41,1.96,4.37,4.37,4.37c2.41,0,4.37-1.96,4.37-4.37
				C468.47,268.56,466.52,266.6,464.1,266.6z M464.1,274.25c-1.81,0-3.29-1.47-3.29-3.29c0-1.81,1.47-3.29,3.29-3.29
				s3.29,1.47,3.29,3.29C467.39,272.78,465.92,274.25,464.1,274.25z"/>
		</g>
		<g>
			<g>
				<path class="st0" d="M465.07,270.32c-0.07-0.45-0.41-0.69-0.91-0.69c-0.76,0-1.05,0.66-1.05,1.34s0.29,1.34,1.05,1.34
					c0.56,0,0.87-0.31,0.91-0.83h1.17c-0.07,1.17-0.92,1.84-2.06,1.84c-1.37,0-2.25-1.04-2.25-2.35s0.88-2.35,2.25-2.35
					c0.98,0,2.03,0.62,2.06,1.71H465.07z"/>
			</g>
		</g>
	</g>
</g>
<g>
	<path class="st1" d="M89.76,301.82c1.08,0.34,1.58,1.34,1.58,2.52c0,1.58-0.92,2.78-2.63,2.78h-3.75v-10.21h3.47
		c1.71,0,2.63,1.2,2.63,2.63c0,1.02-0.5,1.86-1.29,2.25V301.82z M85.63,297.51v4.05h2.72c1.28,0,2.03-0.74,2.03-2.03
		c0-1.17-0.75-2.03-2.03-2.03H85.63z M88.63,306.52c1.28,0,2.03-0.86,2.03-2.18c0-1.44-0.75-2.18-2.03-2.18h-3v4.35H88.63z"/>
	<path class="st1" d="M93.59,307.12v-7.5h0.6v1.28h0.03c0.5-0.98,1.53-1.43,2.52-1.43v0.67h-0.15c-1.35,0-2.4,1.08-2.4,2.33v4.65
		H93.59z"/>
	<path class="st1" d="M98.39,300.06v-0.38c0.9-0.15,1.77-0.22,2.48-0.22c1.58,0,2.48,0.6,2.48,2.4v5.25h-0.6v-0.98h-0.03
		c-0.72,0.9-1.47,1.13-2.46,1.13c-1.41,0-2.39-0.75-2.39-2.1c0-1.5,0.98-2.18,2.58-2.18h2.3v-1.1c0-1.16-0.38-1.83-1.88-1.83H98.39z
		 M102.74,303.54h-2.27c-1.34,0-2.01,0.57-2.01,1.62c0,1.05,0.83,1.55,1.95,1.55c1.05,0,2.33-0.72,2.33-2.15V303.54z"/>
	<path class="st1" d="M105.75,307.12v-7.5h0.6v0.98h0.03c0.65-0.83,1.53-1.13,2.52-1.13c1.5,0,2.4,0.9,2.4,2.25v5.4h-0.6v-5.4
		c0-1.05-0.83-1.7-1.95-1.7c-1.11,0-2.4,0.8-2.4,2.15v4.95H105.75z"/>
	<path class="st1" d="M118.8,296.61h0.6v10.51h-0.6v-0.98h-0.03c-0.65,0.83-1.32,1.13-2.3,1.13c-2.18,0-2.93-1.62-2.93-3.9
		c0-2.28,0.96-3.9,3.23-3.9c0.83,0,1.13,0.03,2.03,0.15V296.61z M118.8,300.06h-2.03c-1.89,0-2.6,1.5-2.6,3.3
		c0,1.8,0.48,3.35,2.45,3.35c1.11,0,2.18-0.79,2.18-2.15V300.06z"/>
	<path class="st1" d="M122.41,296.61v1.65h-0.6v-1.65H122.41z M122.41,299.61v7.5h-0.6v-7.5H122.41z"/>
	<path class="st1" d="M124.81,307.12v-7.5h0.6v0.98h0.03c0.65-0.83,1.53-1.13,2.52-1.13c1.5,0,2.4,0.9,2.4,2.25v5.4h-0.6v-5.4
		c0-1.05-0.83-1.7-1.95-1.7c-1.11,0-2.4,0.8-2.4,2.15v4.95H124.81z"/>
	<path class="st1" d="M137.87,306.14h-0.03c-0.65,0.83-1.32,1.13-2.3,1.13c-2.18,0-2.93-1.62-2.93-3.9c0-2.28,0.96-3.75,3.23-3.75
		h2.63v6.75c0,2.28-0.81,3.9-3.08,3.9c-0.71,0-1.28-0.07-2.18-0.22v-0.38h2.21c1.89,0,2.45-1.5,2.45-3.3V306.14z M137.87,300.17
		h-2.03c-1.89,0-2.6,1.4-2.6,3.2c0,1.8,0.48,3.35,2.45,3.35c1.11,0,2.18-0.79,2.18-2.15V300.17z"/>
	<path class="st1" d="M151.77,301.86c-0.28,1.8-0.83,3.02-1.47,3.83l1.34,1.43h-0.9l-0.89-0.93c-0.96,0.89-2.06,1.08-2.87,1.08
		c-2.13,0-3.11-1.1-3.11-2.69c0-1.26,0.86-2.16,1.91-2.75c-0.78-0.95-1.35-1.67-1.35-2.63c0-1.62,1.31-2.45,3.15-2.45
		c0.71,0,0.98,0.07,1.88,0.22v0.45h-1.88c-1.71,0-2.48,0.65-2.48,1.8c0,0.83,0.58,1.53,2.19,3.26l2.58,2.76
		c0.59-0.72,1.08-1.8,1.31-3.39H151.77z M149.43,305.74l-3.26-3.47c-0.92,0.5-1.65,1.19-1.65,2.3c0,0.78,0.36,2.15,2.46,2.15
		C147.51,306.71,148.51,306.55,149.43,305.74z"/>
	<path class="st1" d="M160.7,296.76c0.71,0,1.58,0.07,2.48,0.22v0.45h-2.48c-2.63,0-3.15,2.63-3.15,4.58c0,1.95,0.53,4.58,3.15,4.58
		h2.48v0.45c-0.9,0.15-1.77,0.22-2.48,0.22c-3.08,0-3.83-2.7-3.83-5.25C156.87,299.46,157.62,296.76,160.7,296.76z"/>
	<path class="st1" d="M165.13,303.36c0-2.28,0.81-3.9,3.08-3.9c2.27,0,3.08,1.62,3.08,3.9c0,2.28-0.81,3.9-3.08,3.9
		C165.94,307.27,165.13,305.64,165.13,303.36z M165.76,303.36c0,1.8,0.56,3.35,2.45,3.35c1.89,0,2.45-1.55,2.45-3.35
		c0-1.8-0.56-3.35-2.45-3.35C166.31,300.02,165.76,301.56,165.76,303.36z"/>
	<path class="st1" d="M173.53,307.12v-7.5h0.6v0.98h0.03c0.65-0.83,1.53-1.13,2.52-1.13c1.1,0,1.89,0.48,2.22,1.27h0.06
		c0.78-0.99,1.68-1.27,2.67-1.27c1.5,0,2.4,0.9,2.4,2.25v5.4h-0.6v-5.4c0-1.05-0.83-1.7-1.95-1.7c-1.08,0-2.34,0.77-2.4,2.06v5.04
		h-0.6v-5.4c0-1.05-0.83-1.7-1.95-1.7c-1.11,0-2.4,0.8-2.4,2.15v4.95H173.53z"/>
	<path class="st1" d="M192,299.61v7.5h-0.6v-0.98h-0.03c-0.65,0.83-1.53,1.13-2.52,1.13c-1.5,0-2.4-0.9-2.4-2.25v-5.4h0.6v5.4
		c0,1.05,0.83,1.7,1.95,1.7c1.11,0,2.4-0.79,2.4-2.15v-4.95H192z"/>
	<path class="st1" d="M194.4,307.12v-7.5h0.6v0.98h0.03c0.65-0.83,1.53-1.13,2.52-1.13c1.5,0,2.4,0.9,2.4,2.25v5.4h-0.6v-5.4
		c0-1.05-0.83-1.7-1.95-1.7c-1.11,0-2.4,0.8-2.4,2.15v4.95H194.4z"/>
	<path class="st1" d="M202.96,296.61v1.65h-0.6v-1.65H202.96z M202.96,299.61v7.5h-0.6v-7.5H202.96z"/>
	<path class="st1" d="M208.28,299.46c0.71,0,1.28,0.07,2.18,0.22v0.38h-2.18c-1.89,0-2.45,1.5-2.45,3.3c0,1.8,0.56,3.3,2.45,3.3
		h2.18v0.38c-0.9,0.15-1.47,0.22-2.18,0.22c-2.27,0-3.08-1.62-3.08-3.9C205.21,301.08,206.02,299.46,208.28,299.46z"/>
	<path class="st1" d="M212.41,300.06v-0.38c0.9-0.15,1.77-0.22,2.48-0.22c1.58,0,2.48,0.6,2.48,2.4v5.25h-0.6v-0.98h-0.03
		c-0.72,0.9-1.47,1.13-2.46,1.13c-1.41,0-2.39-0.75-2.39-2.1c0-1.5,0.98-2.18,2.58-2.18h2.3v-1.1c0-1.16-0.38-1.83-1.88-1.83H212.41
		z M216.77,303.54h-2.27c-1.34,0-2.01,0.57-2.01,1.62c0,1.05,0.83,1.55,1.95,1.55c1.05,0,2.33-0.72,2.33-2.15V303.54z"/>
	<path class="st1" d="M222.69,299.46c0.71,0,1.28,0.07,2.18,0.22v0.38h-2.18c-1.89,0-2.45,1.5-2.45,3.3c0,1.8,0.56,3.3,2.45,3.3
		h2.18v0.38c-0.9,0.15-1.47,0.22-2.18,0.22c-2.27,0-3.08-1.62-3.08-3.9C219.62,301.08,220.43,299.46,222.69,299.46z"/>
	<path class="st1" d="M227.2,296.61v1.65h-0.6v-1.65H227.2z M227.2,299.61v7.5h-0.6v-7.5H227.2z"/>
	<path class="st1" d="M229.3,303.36c0-2.28,0.81-3.9,3.08-3.9c2.27,0,3.08,1.62,3.08,3.9c0,2.28-0.81,3.9-3.08,3.9
		C230.11,307.27,229.3,305.64,229.3,303.36z M229.93,303.36c0,1.8,0.56,3.35,2.45,3.35c1.89,0,2.45-1.55,2.45-3.35
		c0-1.8-0.56-3.35-2.45-3.35C230.49,300.02,229.93,301.56,229.93,303.36z M234.22,296.61l-1.35,2.1h-0.68l1.05-2.1H234.22z"/>
	<path class="st1" d="M237.86,307.12v-7.5h0.6v0.98h0.03c0.65-0.83,1.53-1.13,2.52-1.13c1.5,0,2.4,0.9,2.4,2.25v5.4h-0.6v-5.4
		c0-1.05-0.83-1.7-1.95-1.7c-1.11,0-2.4,0.8-2.4,2.15v4.95H237.86z"/>
</g>
<g>
	<path class="st1" d="M95.24,277.99c-0.25-1.63-1.47-2.48-3.25-2.48c-2.71,0-3.75,2.37-3.75,4.79c0,2.42,1.04,4.78,3.75,4.78
		c1.99,0,3.09-1.11,3.25-2.98h4.2c-0.25,4.18-3.27,6.59-7.36,6.59c-4.9,0-8.04-3.72-8.04-8.4c0-4.67,3.14-8.4,8.04-8.4
		c3.5,0,7.25,2.21,7.36,6.09H95.24z"/>
	<path class="st1" d="M101.36,280.24c0.07-1.53,0.77-2.53,1.83-3.14c1.06-0.61,2.37-0.81,3.72-0.81c2.78,0,5.46,0.61,5.46,3.93v5.12
		c0,0.99,0,2.08,0.45,3h-3.86c-0.16-0.36-0.16-0.72-0.23-1.11c-0.99,1.06-2.44,1.44-3.86,1.44c-2.26,0-4-1.13-4-3.54
		c0-3.79,4.15-3.52,6.82-4.06c0.65-0.16,1.02-0.36,1.02-1.08c0-0.88-1.06-1.22-1.85-1.22c-1.11,0-1.74,0.5-1.92,1.47H101.36z
		 M106.32,286.32c1.83,0,2.44-1.02,2.35-3.45c-0.54,0.34-1.53,0.38-2.37,0.63c-0.88,0.2-1.58,0.56-1.58,1.49
		C104.72,285.95,105.44,286.32,106.32,286.32z"/>
	<path class="st1" d="M121.97,279.11h-2.37v5.33c0,0.93,0.54,1.13,1.38,1.13c0.34,0,0.65-0.05,0.99-0.05v2.82
		c-0.7,0.02-1.4,0.11-2.1,0.11c-3.27,0-4.11-0.97-4.11-4.13v-5.21h-1.94v-2.48h1.94v-3.54h3.84v3.54h2.37V279.11z"/>
	<path class="st1" d="M123.52,280.24c0.07-1.53,0.77-2.53,1.83-3.14c1.06-0.61,2.37-0.81,3.72-0.81c2.78,0,5.46,0.61,5.46,3.93v5.12
		c0,0.99,0,2.08,0.45,3h-3.86c-0.16-0.36-0.16-0.72-0.23-1.11c-0.99,1.06-2.44,1.44-3.86,1.44c-2.26,0-4-1.13-4-3.54
		c0-3.79,4.15-3.52,6.82-4.06c0.65-0.16,1.02-0.36,1.02-1.08c0-0.88-1.06-1.22-1.85-1.22c-1.11,0-1.74,0.5-1.92,1.47H123.52z
		 M128.49,286.32c1.83,0,2.44-1.02,2.35-3.45c-0.54,0.34-1.53,0.38-2.37,0.63c-0.88,0.2-1.58,0.56-1.58,1.49
		C126.89,285.95,127.61,286.32,128.49,286.32z"/>
	<path class="st1" d="M137.2,272.23h3.84v16.12h-3.84V272.23z"/>
	<path class="st1" d="M143.59,280.24c0.07-1.53,0.77-2.53,1.83-3.14c1.06-0.61,2.37-0.81,3.72-0.81c2.78,0,5.46,0.61,5.46,3.93v5.12
		c0,0.99,0,2.08,0.45,3h-3.86c-0.16-0.36-0.16-0.72-0.23-1.11c-0.99,1.06-2.44,1.44-3.86,1.44c-2.26,0-4-1.13-4-3.54
		c0-3.79,4.15-3.52,6.82-4.06c0.65-0.16,1.02-0.36,1.02-1.08c0-0.88-1.06-1.22-1.85-1.22c-1.11,0-1.74,0.5-1.92,1.47H143.59z
		 M148.55,286.32c1.83,0,2.44-1.02,2.35-3.45c-0.54,0.34-1.53,0.38-2.37,0.63c-0.88,0.2-1.58,0.56-1.58,1.49
		C146.95,285.95,147.67,286.32,148.55,286.32z M153.9,271.98l-3.54,3.36h-2.71l2.19-3.36H153.9z"/>
	<path class="st1" d="M157.13,276.63h3.72v1.6h0.05c0.72-1.2,2.28-1.94,3.68-1.94c3.9,0,4.22,2.84,4.22,4.54v7.52h-3.84v-5.67v-1.17
		c0-1.13-0.38-2.05-1.92-2.05c-1.44,0-2.08,1.24-2.08,2.51v6.39h-3.84V276.63z"/>
	<g>
		<g>
			<path class="st1" d="M247.72,269.02c-2.15,0-3.89,1.74-3.89,3.89c0,2.15,1.74,3.89,3.89,3.89c2.15,0,3.89-1.74,3.89-3.89
				C251.61,270.76,249.87,269.02,247.72,269.02z M247.72,275.83c-1.61,0-2.92-1.31-2.92-2.92c0-1.62,1.31-2.92,2.92-2.92
				s2.92,1.31,2.92,2.92C250.64,274.53,249.33,275.83,247.72,275.83z"/>
		</g>
		<g>
			<g>
				<path class="st1" d="M248.58,272.34c-0.06-0.4-0.37-0.62-0.81-0.62c-0.67,0-0.93,0.59-0.93,1.19s0.26,1.19,0.93,1.19
					c0.49,0,0.77-0.28,0.81-0.74h1.05c-0.06,1.04-0.81,1.64-1.83,1.64c-1.22,0-2-0.93-2-2.09c0-1.16,0.78-2.09,2-2.09
					c0.87,0,1.8,0.55,1.83,1.52H248.58z"/>
			</g>
		</g>
	</g>
</g>
<g>
	<g>
		<g>
			<path class="st1" d="M176.41,283.53c0.09,1.9,1.24,2.51,3.05,2.51c1.26,0,2.57-0.45,2.57-1.65c0-1.44-2.3-1.69-4.63-2.35
				c-2.28-0.65-4.72-1.67-4.72-4.65c0-3.52,3.54-4.9,6.57-4.9c3.18,0,6.46,1.58,6.46,5.19h-4.2c0.07-1.44-1.33-1.94-2.6-1.94
				c-0.9,0-2.03,0.32-2.03,1.38c0,1.26,2.32,1.47,4.67,2.12c2.33,0.65,4.67,1.74,4.67,4.65c0,4.09-3.48,5.39-7.02,5.39
				c-3.68,0-7-1.62-7-5.76H176.41z"/>
			<path class="st1" d="M195.1,279.72h-2.37v5.33c0,0.93,0.54,1.13,1.38,1.13c0.34,0,0.65-0.05,0.99-0.05v2.82
				c-0.7,0.02-1.4,0.11-2.1,0.11c-3.27,0-4.11-0.97-4.11-4.13v-5.21h-1.94v-2.48h1.94v-3.54h3.84v3.54h2.37V279.72z"/>
			<path class="st1" d="M208.46,288.95h-3.72v-1.6h-0.05c-0.72,1.2-2.21,1.94-3.57,1.94c-3.36,0-4.33-1.94-4.33-5.01v-7.04h3.84
				v6.79c0,1.56,0.65,2.1,1.9,2.1c0.81,0,2.1-0.54,2.1-2.62v-6.28h3.84V288.95z"/>
			<path class="st1" d="M222.64,288.95h-3.66v-1.35h-0.05c-0.77,1.13-1.85,1.69-3.23,1.69c-3.68,0-5.24-3.14-5.24-6.46
				c0-3.05,1.63-5.94,4.94-5.94c1.42,0,2.55,0.54,3.34,1.6h0.05v-5.67h3.84V288.95z M214.31,282.97c0,1.6,0.61,3.39,2.35,3.39
				c1.87,0,2.28-1.78,2.28-3.27c0-1.69-0.61-3.25-2.28-3.25C214.92,279.83,214.31,281.48,214.31,282.97z"/>
			<path class="st1" d="M229.23,275.77h-3.84v-2.93h3.84V275.77z M225.39,277.23h3.84v11.72h-3.84V277.23z"/>
			<path class="st1" d="M237.53,276.89c3.63,0,6.18,2.69,6.18,6.21c0,3.52-2.55,6.18-6.18,6.18c-3.63,0-6.16-2.66-6.16-6.18
				C231.37,279.58,233.9,276.89,237.53,276.89z M237.53,286.35c1.81,0,2.35-1.74,2.35-3.25c0-1.49-0.54-3.27-2.35-3.27
				c-1.78,0-2.33,1.78-2.33,3.27C235.21,284.61,235.75,286.35,237.53,286.35z"/>
		</g>
	</g>
</g>
</svg>
